<?xml version="1.0" encoding="UTF-8"?>
<svg id="Layer_2" xmlns="http://www.w3.org/2000/svg" viewBox="0 0 1824.69 475.95">
  <defs>
    <style>
      .cls-1 {
        fill: #f9ebe3;
      }
    </style>
  </defs>
  <g id="Layer_2-2" data-name="Layer_2">
    <g>
      <g>
        <path class="cls-1" d="M97.9,10.97c9.05,0,20.84-.28,25.23-1.1.82-.27,2.19,1.92,2.47,3.29,0,10.97.55,21.12.55,26.6,0,3.84-1.92,7.4-4.39,7.4-2.19,0-3.84-3.84-4.39-6.85-3.57-14.53-9.87-17.55-18.1-18.92-6.58-1.1-24.95-1.65-38.94-1.37-.55,0-3.29,1.37-3.84,7.95-.55,6.58-1.37,55.67-.82,61.97,0,1.1.55,2.47,2.19,2.47h18.37c24.68,0,25.23-.82,30.16-13.44,1.65-4.11,3.57-6.03,5.21-6.03,2.19,0,2.74,4.11,2.47,6.58-.55,7.4-.82,12.89-.82,19.47,0,7.4.55,11.24.82,17.28,0,4.94-1.1,7.68-3.29,7.68-1.92,0-3.84-3.02-4.66-5.76-3.84-12.62-5.48-13.71-20.84-14.53-8.78-.55-19.74-.55-27.42-.55-1.1,0-2.47,1.92-2.47,2.47-1.1,6.31-.82,30.99-.82,42.23,0,7.68.82,18.1,2.19,22.49,1.37,3.29,3.56,5.76,5.48,6.31,4.66.82,13.99,1.92,24.41,1.92,4.39,0,19.74-.28,26.05-2.2,8.5-2.47,15.9-7.68,22.21-20.29,3.29-6.31,5.21-7.95,6.86-7.95,2.19,0,2.74,4.66,2.19,7.68,0,2.19-7.95,26.87-9.87,29.89-.82,1.1-3.84,3.02-5.21,3.02-3.02,0-49.91-1.92-89.67-1.92-15.08,0-20.57,1.37-30.71,1.37-5.21,0-8.5-.55-8.5-3.56,0-2.19,3.29-3.57,7.68-4.66,13.99-3.02,18.92-5.48,20.02-20.29.82-11.24,1.92-41.13,1.92-75.14s.55-40.04,0-47.99c-.82-11.52-3.57-15.36-15.36-17.82-5.76-1.37-8.23-2.47-8.23-4.66,0-2.47,4.11-3.84,7.95-3.84,12.89,0,26.05.82,43.33.82h40.59Z"/>
        <path class="cls-1" d="M300.28,10.42c10.69-.55,15.36-2.19,19.2-4.66,1.92-1.1,3.02-1.92,4.11-1.92,1.37,0,2.74,2.47,1.37,6.31-2.74,8.5-4.39,18.1-6.03,31.81-.27,2.47-2.47,5.48-4.66,5.48-1.92,0-3.29-1.92-4.11-8.77-1.92-14.53-5.48-15.9-21.66-16.73-4.94-.27-33.46-.27-37.57.55-1.1.27-2.19,2.74-2.19,3.56,0,12.89-.27,41.41-.27,64.99,0,31.81.27,58.41,1.37,69.38,1.1,11.52,2.47,15.63,20.02,19.2,3.57.82,7.13,3.29,7.13,4.94,0,3.02-4.66,3.56-7.68,3.56-2.19,0-21.94-1.37-32.91-1.37-12.89,0-28.25,1.92-32.08,1.92-5.48,0-8.23-1.65-8.23-3.29,0-2.19,2.74-4.11,5.48-4.94,18.65-4.39,19.47-8.78,20.29-29.07.55-16.45,1.92-71.85,1.92-92.96V25.78c0-1.92-1.65-3.57-2.47-3.57-5.21-.82-28.52-1.37-33.18-1.37-9.32,0-15.36,1.92-19.47,6.31-1.37,1.37-4.39,6.03-8.78,14.26-2.74,5.76-4.39,6.03-5.48,6.03-1.92,0-3.29-3.29-3.29-6.03,0-5.21,5.48-21.12,5.48-36.75,0-1.64,2.19-4.66,4.11-4.66,1.37,0,1.92,1.92,4.39,4.39.82.82,5.48,4.66,9.87,4.94,6.86.82,31.81,1.65,63.35,1.65,14.53,0,51.28-.28,61.97-.55Z"/>
        <path class="cls-1" d="M403.12,12.89c2.47,7.4,7.13,20.02,12.07,33.46,14.53,40.59,34.83,94.06,39.49,105.85,9.05,22.21,13.71,24.41,25.5,27.7,4.39,1.1,6.86,2.47,6.86,4.39s-2.19,3.84-9.05,3.84c-8.5,0-23.58-1.37-34.83-1.37-9.05,0-13.99.55-21.12.55-6.58,0-8.5-1.92-8.5-3.57,0-1.37,1.65-3.57,6.86-4.39,12.61-2.47,11.79-7.95,10.97-13.44-1.92-10.42-8.78-27.97-15.08-45.52-.27-1.1-1.64-3.02-8.5-3.02-18.1,0-39.76.55-45.25,1.1-1.1,0-2.47,1.65-3.02,2.47-7.68,18.65-13.99,39.49-13.99,46.07,0,3.56,1.64,8.23,13.71,11.79,4.66,1.37,7.4,3.02,7.4,5.21,0,2.47-4.11,3.57-7.95,3.57-4.66,0-11.52-.82-21.66-.82s-24.13,1.37-28.25,1.37c-5.21,0-6.58-1.37-6.58-3.02s1.65-4.11,6.31-5.48c13.71-4.39,17.28-5.76,24.95-23.31,6.58-13.99,37.3-95.98,48.81-123.4,1.37-3.57,1.92-5.21,2.47-6.86.27-.82.82-2.47,1.92-4.39,1.92-3.02,5.76-8.77,7.68-11.79,1.92-2.47,3.29-3.57,4.66-3.57,1.1,0,2.19.82,4.11,6.58ZM410.25,102.56c-4.39-13.44-18.1-53.2-20.84-58.14-.82-1.65-1.65-1.65-2.47.27-4.94,13.16-18.92,50.73-21.11,58.96-.27,1.1.55,1.92,1.64,1.92,10.69-.27,32.91,0,42.23-.55.27,0,.82-1.37.55-2.47Z"/>
        <path class="cls-1" d="M626.89,10.97c19.74,0,41.96-.82,44.15-.82,1.37-.27,3.56,1.37,3.56,3.02-.55,7.95.27,18.1.55,27.42.27,3.57-1.37,7.4-3.57,7.4s-4.39-2.74-6.31-8.5c-4.11-12.89-7.4-16.73-16.73-17.82-9.32-1.37-35.65-1.1-41.41-.82-2.74.27-4.39,2.74-4.39,3.57-.82,7.13-1.37,42.23-1.37,60.33,0,6.86,1.37,10.15,2.74,10.15,10.42,0,31.54.27,38.12-.55,8.23-.82,10.97-3.29,14.53-12.61,1.65-3.84,3.02-6.58,5.48-6.58,1.92,0,2.74,2.74,2.74,6.03,0,3.56-1.65,12.61-1.65,17.55,0,12.07.55,15.63.55,21.39,0,3.56-1.37,6.85-4.11,6.85-1.1,0-3.02-1.92-4.11-6.31-2.74-10.15-6.31-11.52-11.24-12.89-3.29-.55-12.89-1.37-18.37-1.37-4.94,0-17.28,0-22.76.82-.55,0-1.92,2.19-1.92,3.29-.55,7.68.82,43.87,1.1,51.28.27,8.77,1.1,13.71,17.83,17.28,4.39.82,7.13,2.74,7.13,4.94,0,1.92-2.74,3.57-8.23,3.57-7.13,0-15.91-.82-26.33-.82-11.52,0-27.42,1.65-34,1.65-5.48,0-7.4-1.37-7.4-3.02,0-2.19,2.74-4.39,7.13-5.48,14.26-3.57,15.36-9.6,15.91-13.44.82-8.5,1.92-27.97,1.92-82.27,0-25.78,0-41.68-.55-48.81-.55-9.32-4.94-13.99-16.73-17-5.48-1.37-7.13-2.74-7.13-4.94,0-1.92,3.56-3.29,7.68-3.29,12.07,0,22.49.82,31.54.82h35.65Z"/>
        <path class="cls-1" d="M707.5,10.15c11.52,0,19.2.82,29.34.82s21.39-.55,27.42-.55c5.21,0,8.23,1.1,8.23,3.29s-2.74,3.84-7.95,4.94c-9.87,1.92-14.81,4.94-16.45,15.9-1.1,9.05-1.1,37.02-1.1,75.96,0,31.26,6.86,42.5,15.63,52.1,7.4,8.5,25.5,14.26,38.12,14.26,18.1,0,43.88-7.4,50.73-37.84,3.29-14.53,5.76-37.57,5.76-69.93,0-17.82-.55-30.71-1.1-33.73-.82-10.15-3.29-13.99-18.1-17.55-2.74-.55-6.31-2.74-6.31-4.66,0-1.65,1.92-3.02,6.86-3.02,6.58,0,14.81.82,23.58.82,11.24,0,17.28-.55,24.95-.55,4.39,0,6.86,1.1,6.86,3.29,0,1.65-2.47,3.29-6.31,4.66-12.07,3.57-17.55,8.23-17.82,25.23-.27,12.34-1.92,43.05-2.47,57.31-1.64,47.71-14.81,70.48-34.28,81.72-12.61,7.13-27.42,8.5-39.21,8.5-24.68,0-43.05-9.6-49.91-16.18-15.36-14.53-22.21-34-22.21-79.53,0-35.65-.55-61.7-.82-65.27-.55-5.21-4.39-9.6-14.81-11.79-3.29-.82-6.31-2.47-6.31-4.94,0-2.19,3.29-3.29,7.68-3.29Z"/>
        <path class="cls-1" d="M913.45,10.15c6.31,0,21.39.82,35.37.82,1.65,0,4.39,1.92,6.03,3.56,4.11,4.94,10.97,13.44,21.67,27.15,12.61,15.91,71.57,79.25,89.12,98.45,1.65,1.65,2.74-1.1,2.74-1.92,1.37-8.5.55-38.39.55-74.59,0-9.32-.82-19.47-1.37-27.7-.27-5.76-2.47-12.34-17.28-16.45-5.48-1.65-7.68-3.57-7.68-6.03,0-1.92,3.57-2.74,7.4-2.74,6.86,0,14.26.28,22.49.28,10.42,0,19.74-1.1,26.87-1.1,4.66,0,6.31,1.1,6.31,3.02s-1.65,4.39-6.58,5.48c-12.07,3.29-16.45,6.31-17.27,20.29-.82,9.6-3.02,67.18-3.02,109.14,0,11.52,1.92,32.91,1.92,37.84,0,2.74-1.92,5.76-4.11,5.76-4.39,0-10.15-6.03-12.89-9.32-4.66-6.03-9.87-12.89-17.28-21.94-25.78-30.71-72.39-83.09-97.07-112.43-1.1-1.37-3.29-.55-3.29.55,0,7.4-1.1,15.08-1.1,36.47,0,27.42-1.1,64.99,0,74.59.82,11.79,3.84,16.18,17.28,20.02,5.48,1.37,6.86,3.29,6.86,4.94,0,2.74-3.57,3.84-8.78,3.84-7.95,0-18.37-1.37-28.24-1.37-6.03,0-14.81.55-19.47.55-3.84,0-7.13-.55-7.13-3.02s2.74-4.11,5.48-4.94c12.89-4.11,18.37-5.21,19.47-25.78,1.37-23.86,5.21-86.93,5.21-109.14,0-10.15-1.37-12.89-2.19-13.71-6.86-8.23-9.6-9.6-22.49-12.62-3.02-.82-6.03-2.47-6.03-4.39,0-2.19,2.74-3.57,8.5-3.57Z"/>
        <path class="cls-1" d="M1282.83,35.1c14.81,14.26,25.23,38.67,25.23,60.33,0,39.76-24.68,68.28-43.6,78.98-16.18,9.32-39.21,15.08-64.99,15.08-11.24,0-36.2-.82-54.02-1.92-5.76-.27-10.97-.27-15.36-.27-6.03,0-8.77-1.92-8.77-4.11s2.74-3.84,6.31-4.11c18.37-2.19,19.74-7.13,20.57-29.62.55-13.16.82-22.21.82-37.29s-.27-47.44-1.37-69.11c-.55-17.55-.82-21.66-17.28-24.13-3.02-.55-6.31-2.19-6.31-4.11,0-2.2,2.74-3.84,6.86-3.84h9.05c13.71,0,44.7-2.2,67.46-2.2,38.39,0,64.44,16.18,75.41,26.33ZM1177.53,19.74c-1.92,1.37-2.47,2.19-2.74,3.57-.55,4.11-1.1,26.87-1.1,51.28v39.76c0,18.92.27,35.1,1.1,47.17.82,7.68,4.94,11.52,6.03,12.61,4.94,3.57,15.9,7.13,21.66,7.13,12.07,0,33.73-4.66,49.09-17.55,16.45-13.99,27.7-38.39,27.7-68.01,0-22.76-10.97-47.99-27.97-61.7-13.16-10.42-35.65-16.73-55.94-16.73-9.05,0-15.36.82-17.82,2.47Z"/>
        <path class="cls-1" d="M1357.42,38.39c-.82-12.89-.82-17-15.63-19.74-6.31-1.37-7.95-3.29-7.95-4.94,0-2.19,3.02-3.57,7.4-3.57,7.13,0,21.12.82,30.17.82,13.44,0,20.29-.82,29.89-.82,4.66,0,7.4,1.1,7.4,3.57,0,2.19-3.02,3.84-7.4,4.66-15.36,3.02-15.63,9.87-16.45,17.28-1.1,8.78-1.65,24.68-1.65,77.33,0,18.65.27,34.55.82,43.33,1.1,15.08,2.19,20.02,19.47,23.58,4.94,1.1,7.4,2.74,7.4,4.94s-4.39,3.57-7.68,3.57c-13.44,0-32.63-1.65-40.86-1.65s-11.79.55-21.94.55c-5.48,0-7.4-1.92-7.4-4.11,0-1.92,2.47-3.57,8.23-4.66,13.44-3.02,14.53-7.4,15.63-20.02.82-9.87,1.37-38.39,1.37-61.7,0-16.18-.27-49.09-.82-58.41Z"/>
        <path class="cls-1" d="M1433.38,10.15c6.31,0,21.39.82,35.37.82,1.65,0,4.39,1.92,6.03,3.56,4.11,4.94,10.97,13.44,21.66,27.15,12.62,15.91,71.57,79.25,89.12,98.45,1.65,1.65,2.74-1.1,2.74-1.92,1.37-8.5.55-38.39.55-74.59,0-9.32-.82-19.47-1.37-27.7-.27-5.76-2.47-12.34-17.28-16.45-5.48-1.65-7.68-3.57-7.68-6.03,0-1.92,3.57-2.74,7.4-2.74,6.85,0,14.26.28,22.49.28,10.42,0,19.74-1.1,26.87-1.1,4.66,0,6.31,1.1,6.31,3.02s-1.65,4.39-6.58,5.48c-12.07,3.29-16.45,6.31-17.28,20.29-.82,9.6-3.02,67.18-3.02,109.14,0,11.52,1.92,32.91,1.92,37.84,0,2.74-1.92,5.76-4.11,5.76-4.39,0-10.15-6.03-12.89-9.32-4.66-6.03-9.87-12.89-17.28-21.94-25.78-30.71-72.39-83.09-97.08-112.43-1.1-1.37-3.29-.55-3.29.55,0,7.4-1.1,15.08-1.1,36.47,0,27.42-1.1,64.99,0,74.59.82,11.79,3.84,16.18,17.28,20.02,5.48,1.37,6.85,3.29,6.85,4.94,0,2.74-3.57,3.84-8.77,3.84-7.95,0-18.37-1.37-28.25-1.37-6.03,0-14.81.55-19.47.55-3.84,0-7.13-.55-7.13-3.02s2.74-4.11,5.48-4.94c12.89-4.11,18.37-5.21,19.47-25.78,1.37-23.86,5.21-86.93,5.21-109.14,0-10.15-1.37-12.89-2.19-13.71-6.86-8.23-9.6-9.6-22.49-12.62-3.02-.82-6.03-2.47-6.03-4.39,0-2.19,2.74-3.57,8.5-3.57Z"/>
        <path class="cls-1" d="M1794.25,12.07c5.21,1.1,7.68,1.65,10.97,2.19.82,0,3.02,2.19,3.29,6.58,0,6.85,3.57,20.29,3.57,30.71,0,3.57-1.37,6.31-3.57,6.31-1.64,0-3.56-2.47-4.94-6.58-2.74-7.13-6.58-13.99-10.7-19.2-6.03-7.13-21.94-17.27-43.87-17.27-45.8,0-72.67,38.12-72.67,81.17,0,19.47,4.11,36.75,12.07,49.91,14.26,23.86,39.49,37.29,64.72,37.29,3.29,0,15.9-1.65,23.31-6.31,2.19-1.65,5.48-10.42,5.48-15.36,0-9.6-.27-24.41-.82-27.7-1.92-6.31-4.11-11.24-23.86-12.89-4.11-.27-7.4-2.47-7.4-4.66,0-1.92,3.29-4.11,8.5-4.11,6.03,0,24.95,1.1,32.63,1.1,6.58,0,17.28-1.1,26.33-1.1,4.66,0,7.4,1.64,7.4,3.84,0,1.65-3.02,3.57-6.31,4.66-8.5,2.47-8.77,5.48-9.87,8.77-.82,3.02-1.37,22.76-1.37,34,0,4.11,2.19,6.58,4.11,7.95,4.11,2.47,4.39,3.29,4.39,4.94,0,1.1-1.37,3.02-4.11,3.84-4.94,1.37-14.26,3.57-24.95,6.31-12.07,3.29-30.16,5.21-38.67,5.21-30.44,0-56.49-9.6-72.94-24.68-12.62-12.07-28.25-34.28-28.25-67.73,0-24.95,9.05-49.36,30.71-68.28,17.28-15.36,44.15-24.68,71.02-24.68,19.47,0,34.28,3.29,45.79,5.76Z"/>
      </g>
      <g>
        <g>
          <path class="cls-1" d="M568.33,402.18c-6.86,3.57-12.34,4.66-15.08,4.66-4.39,0-9.6-1.65-13.71-3.57-9.05,27.42-10.97,37.84-13.99,50.18-1.92,8.78,2.74,10.97,13.16,13.16,5.21.82,7.13,2.19,7.13,3.84,0,1.92-3.57,3.57-7.95,3.57-7.95,0-12.89-.27-18.1-.27-10.15,0-24.13,1.92-32.36,2.19-6.03,0-7.95-1.37-7.95-3.29,0-1.65,2.74-3.29,7.13-4.39,11.24-2.47,14.26-6.03,16.73-13.99,6.58-20.02,38.12-120.66,46.34-146.71,0-.27-.27-1.37-1.37-1.1-8.23,2.47-15.63,5.21-22.76,9.05-4.39,2.2-7.13,1.37-7.13,0,0-2.19,2.47-4.94,4.11-6.03,8.78-6.03,24.41-12.07,29.62-13.99,1.1-.27,1.92-2.19,2.19-2.74,3.29-9.05,4.39-13.16,7.13-16.73,2.47-2.74,9.05-3.84,13.44-3.84,3.56,0,3.02,3.02,3.02,4.66,0,2.47-2.19,9.32-3.57,13.71-.27.55.27,1.64,1.1,1.64,24.13,0,47.44,8.78,47.44,31.26,0,32.36-28.79,66.09-54.57,78.7ZM574.09,302.37c-1.1,0-3.02,1.1-3.57,2.19-8.23,25.5-17.55,51.55-26.33,83.09-.27.82-.27,2.74.27,3.57,1.92,4.66,6.58,8.5,8.23,8.5,3.02,0,8.5-1.92,13.99-7.13,17.82-16.18,34.28-44.15,34.28-71.85,0-12.34-13.99-18.37-26.87-18.37Z"/>
          <path class="cls-1" d="M725.19,302.37c.27.55,1.65,0,2.19-1.1,1.37-2.47,3.56-6.03,4.66-7.68.27-.82,3.02-2.47,3.84-2.47,2.47,0,7.95,1.92,11.52,3.84,0,.27.82,1.92-.27,4.39-4.39,10.15-25.23,61.43-30.44,80.62-1.65,5.48,1.37,7.4,4.94,7.4,5.21,0,14.81-6.58,20.84-13.44,3.57-4.11,5.21-2.74,5.21-1.1,0,1.37-.55,4.11-2.47,7.13-10.97,17.83-27.97,27.42-39.76,27.42-6.86,0-11.24-4.39-11.52-10.42,0-3.02,6.03-17.28,9.6-26.87.55-1.64-.55-4.39-1.92-2.74-15.08,16.45-42.5,40.04-59.51,40.04-4.94,0-12.89-5.21-12.89-10.69,0-6.86,3.84-17,11.52-29.62,15.36-25.23,39.21-51.01,60.88-65.81,4.94-3.02,10.69-5.21,12.34-5.21s7.4,2.47,11.24,6.31ZM678.57,331.16c-9.87,12.07-23.86,37.57-23.86,51.01,0,3.84,2.74,8.23,5.48,8.23,6.31,0,15.36-6.31,26.6-18.65,12.34-12.61,24.13-31.81,31.26-47.44,1.92-4.11,2.19-7.4,1.37-8.23-3.02-2.74-8.23-4.66-9.87-4.66-9.32,0-21.11,7.13-30.99,19.74Z"/>
          <path class="cls-1" d="M808.28,304.83c0,8.77-6.03,26.87-8.5,33.18-1.37,4.66,1.1,4.39,4.66-1.37,6.58-10.97,14.26-21.39,21.12-29.07,8.23-9.6,16.45-15.63,23.86-15.63,8.5,0,10.97,6.86,10.97,11.52,0,11.79-10.42,21.66-13.71,21.66-1.92,0-3.29-1.1-3.57-5.48-.55-6.03-3.02-10.97-5.48-10.97-3.29,0-7.95,3.02-17,17.55-10.69,16.73-33.46,62.52-37.84,71.3-4.11,8.23-9.05,10.15-12.07,10.15-2.19,0-6.03-1.65-7.4-3.84-.55-.82-.27-3.84,0-4.66,10.15-26.32,18.92-47.71,27.42-75.41,3.02-9.6.27-12.34-2.74-12.34-3.84,0-9.32,3.84-15.08,10.7-2.74,3.57-4.66,5.21-5.76,5.21-1.92,0-2.74-4.39-1.37-7.95,6.03-16.45,18.92-27.42,30.71-27.42,7.68,0,11.79,7.13,11.79,12.89Z"/>
          <path class="cls-1" d="M925.37,270.28c-.82,3.29-6.03,19.47-6.86,22.49-.27.82.27,2.19,1.64,2.19,5.48,0,18.1.55,24.95.82.82,0,1.65,1.1,1.65,2.47,0,1.64-2.74,5.76-5.76,6.03-4.11.27-20.02,1.1-25.23,1.1-1.1,0-1.92,1.1-2.47,2.19-4.11,9.05-18.1,46.34-26.33,69.11-1.37,4.11-1.1,7.4,1.65,7.4,5.48,0,20.84-10.97,27.15-17.28,2.19-2.19,5.76-3.84,5.76-.55,0,2.2-.55,3.84-2.47,6.58-11.24,15.63-38.94,34-52.1,34-2.74,0-7.68-4.66-7.68-7.4,0-1.37.27-3.56,1.37-6.85,1.1-2.74,19.74-53.47,31.54-83.91.82-1.65.27-3.29-.55-3.29-3.29,0-10.42-.27-13.99-.55-2.74-.27-4.66-1.65-4.66-2.74,0-1.92,3.84-5.76,5.76-6.03,5.48-.55,13.99-.82,16.45-.82,1.37,0,2.74-1.92,3.02-2.47,4.39-8.5,8.5-16.18,11.79-21.12,3.57-5.48,7.68-7.95,13.71-7.95,2.47,0,3.02,1.65,1.65,6.58Z"/>
          <path class="cls-1" d="M1060.29,308.13c0,4.66-.82,8.77-3.84,16.45-6.03,16.18-21.66,49.09-24.13,53.47-2.47,4.94-1.92,7.68.82,7.68,5.48,0,16.73-8.77,24.41-15.9,2.74-2.47,5.48-2.74,5.48-.55,0,3.02-1.92,6.03-3.56,7.95-9.87,14.81-35.1,30.16-46.07,30.16-2.47,0-6.31-1.1-9.05-4.94-1.1-1.1-2.47-3.57,0-9.05,2.47-4.66,34.55-70.48,37.57-79.25,2.74-8.5.27-12.07-4.11-12.07-6.31,0-16.73,7.13-30.16,23.86-11.52,14.26-35.37,52.65-43.87,64.99-7.4,11.79-11.24,16.73-14.26,16.73-4.39,0-8.78-5.21-8.78-8.23-.82-4.39,6.86-19.74,7.95-22.21,7.68-17.28,20.57-43.05,28.52-63.62,1.65-3.29,0-4.39-2.19-4.39-8.23,0-14.81,6.31-21.12,12.34-1.37,1.37-2.47,2.47-3.84,2.47-.82.27-1.64-1.65-1.64-2.74,0-8.5,13.71-29.34,37.02-29.34,3.56,0,8.5,2.47,10.15,6.03.82,1.65.82,3.84-.82,7.4-1.92,4.66-13.44,32.91-16.18,38.39-1.1,2.74,1.92,3.29,3.29.82,5.76-9.05,24.68-31.54,33.73-38.94,12.07-10.15,21.94-13.71,28.52-13.71,10.69,0,16.18,8.5,16.18,16.18Z"/>
          <path class="cls-1" d="M1170.8,309.22c0,9.32-8.78,20.02-21.67,27.15-10.15,5.76-28.24,11.24-39.21,14.26-2.19.55-3.57,2.2-4.39,4.39-1.65,4.66-3.02,12.61-3.02,20.29,0,13.16,6.85,16.18,13.99,16.18,9.05,0,19.47-5.76,27.15-12.89,3.02-2.74,5.48-4.11,7.13-4.11.55,0,1.37.82,1.37,1.64,0,1.65-1.37,4.94-3.29,7.13-7.68,9.32-26.05,23.58-46.34,23.58-7.13,0-21.94-10.69-21.94-29.07,0-19.47,12.07-46.34,29.62-64.72,14.26-14.53,29.62-21.12,40.04-21.12,16.45,0,20.57,10.7,20.57,17.28ZM1110.2,341.03c-.27.82,0,3.02,1.1,2.47,18.65-6.31,41.96-19.47,41.96-37.57,0-4.11-1.37-7.13-4.94-7.13-13.16,0-33.18,26.6-38.12,42.23Z"/>
          <path class="cls-1" d="M1224.82,304.83c0,8.77-6.03,26.87-8.5,33.18-1.37,4.66,1.1,4.39,4.66-1.37,6.58-10.97,14.26-21.39,21.12-29.07,8.23-9.6,16.45-15.63,23.86-15.63,8.5,0,10.97,6.86,10.97,11.52,0,11.79-10.42,21.66-13.71,21.66-1.92,0-3.29-1.1-3.57-5.48-.55-6.03-3.02-10.97-5.48-10.97-3.29,0-7.95,3.02-17,17.55-10.69,16.73-33.46,62.52-37.84,71.3-4.11,8.23-9.05,10.15-12.07,10.15-2.19,0-6.03-1.65-7.4-3.84-.55-.82-.27-3.84,0-4.66,10.15-26.32,18.92-47.71,27.42-75.41,3.02-9.6.27-12.34-2.74-12.34-3.84,0-9.32,3.84-15.08,10.7-2.74,3.57-4.66,5.21-5.76,5.21-1.92,0-2.74-4.39-1.37-7.95,6.03-16.45,18.92-27.42,30.71-27.42,7.68,0,11.79,7.13,11.79,12.89Z"/>
          <path class="cls-1" d="M1342.19,297.16c1.65,1.37,3.02,3.84,3.02,6.31,0,3.57-5.48,10.15-7.68,11.52-1.1.55-2.74,0-4.11-.82-6.03-3.84-10.69-9.6-18.1-9.6-3.02,0-10.42,4.11-10.42,12.07s6.31,17,13.44,26.6c7.68,10.97,11.79,18.37,11.79,24.41,0,9.32-6.58,18.37-15.63,25.78-11.24,9.32-25.78,13.44-31.81,13.44-7.13,0-18.65-6.03-18.65-14.81,0-2.2,3.29-8.5,5.76-11.79.82-.55,3.29-1.1,4.39,0,5.21,5.21,15.08,13.16,24.68,13.16,7.68,0,13.99-6.03,13.99-13.71,0-5.48-4.11-12.61-12.89-24.68-7.95-11.24-10.97-18.92-10.97-24.95,0-10.42,6.58-19.2,15.36-26.87,9.32-8.23,18.92-11.24,24.41-11.24,6.03,0,11.52,3.02,13.44,5.21Z"/>
        </g>
        <g>
          <rect class="cls-1" x="1356.03" y="340.76" width="468.67" height="17.28"/>
          <rect class="cls-1" y="340.76" width="468.67" height="17.28"/>
        </g>
      </g>
    </g>
  </g>
</svg>