<svg xmlns="http://www.w3.org/2000/svg" version="1.1" xmlns:xlink="http://www.w3.org/1999/xlink" xmlns:svgjs="http://svgjs.dev/svgjs" width="16.05" height="16"><svg id="SvgjsSvg1158" xmlns="http://www.w3.org/2000/svg" viewBox="0 0 16.05 16">
  <defs>
    <style>
      .cls-1 {
        fill: none;
      }

      .cls-2 {
        fill: #658480;
      }
    </style>
  </defs>
  <g id="SvgjsG1157" data-name="Layer_1">
    <rect class="cls-1" width="16" height="16"></rect>
    <g>
      <path class="cls-2" d="M4.1,4.81c.34,0,.75-.05.89-.08.04-.01.12.07.13.14.01.04.01.95.01,1.16,0,.14-.08.3-.17.3s-.18-.15-.2-.27c-.13-.58-.45-.76-.64-.8-.15-.03-.46-.07-1.41-.07-.04,0-.11.04-.12.3-.01.25-.04,1.43-.04,2.18,0,.03.05.11.12.11h.88c.61,0,.57-.05.77-.48.07-.15.14-.29.25-.29.09,0,.12.17.11.32-.02.28-.04.46-.04.69,0,.27.01.45.04.73.02.18-.05.32-.14.32-.08,0-.17-.12-.2-.24-.13-.43-.3-.53-.59-.56-.33-.03-.7-.03-1.03-.03-.04,0-.15.12-.15.14-.03.33-.02,1.03-.01,1.33.01.21-.02.59.02.83.01.08.11.24.24.27.15.03.45.05.78.05.39,0,.65.01.92-.1.3-.12.58-.4.79-.76.16-.28.27-.39.36-.39.12,0,.09.24.09.31,0,.08-.31,1.02-.4,1.23-.04.09-.24.14-.29.14-.11,0-3.12-.04-3.45-.04-.75,0-.82.05-1.17.05-.19,0-.37-.03-.37-.13s.13-.18.32-.23c.52-.12.62-.25.67-.8.03-.42.08-1,.08-2.26s.01-1.79-.01-2.09c-.02-.34-.09-.57-.53-.64-.21-.04-.34-.08-.34-.2,0-.09.19-.15.33-.15.48,0,1.53.03,2.01.03h1.53Z"></path>
      <path class="cls-2" d="M8.64,4.81c1.45,0,1.59-.04,1.69-.05.08-.01.14.07.14.13-.02.3.03.85.04,1.2.01.13-.04.3-.16.3-.08,0-.16-.1-.24-.35-.1-.35-.36-.75-.72-.79-.3-.03-1.13-.03-1.34-.03-.04,0-.15.09-.15.11-.06.33-.07,1.46-.07,2.14,0,.12.03.36.13.36.26,0,.84.01,1.05-.03.31-.06.43-.12.53-.46.04-.15.12-.29.23-.29.08,0,.13.18.13.27,0,.13-.03.47-.03.65,0,.3.02.63.02.76,0,.32-.11.39-.18.39-.04,0-.13-.07-.19-.29-.1-.36-.29-.47-.42-.5-.15-.03-.42-.06-.67-.06-.16,0-.38.01-.5.03-.04.01-.09.09-.09.11,0,.9.04,1.72.04,1.83.02.47.13.55.59.64.16.03.31.1.31.21,0,.09-.17.16-.36.16-.26,0-.67-.03-1.05-.03-.58,0-1.19.06-1.59.06-.2,0-.31-.07-.31-.13,0-.11.11-.17.31-.23.41-.11.52-.26.55-.55.03-.32.08-.86.08-2.86,0-.95,0-1.53-.02-1.8-.02-.34-.12-.47-.49-.56-.21-.06-.37-.11-.37-.22,0-.1.18-.15.33-.15.45,0,.95.03,1.4.03h1.37Z"></path>
      <path class="cls-2" d="M13.35,5.08c-.08,0-.24.06-.27.09s-.07.13-.08.37c-.01.2-.01,1.46-.02,2.63,0,.92.01,1.5.01,1.75.01.6.02.85.65.99.2.04.29.13.29.23,0,.08-.16.15-.31.15-.27,0-.96-.06-1.4-.06-.31,0-.85.03-1.16.03-.28,0-.43-.04-.43-.17,0-.07.16-.16.27-.19.46-.11.59-.25.63-.74.03-.37.06-.95.06-1.47,0-.33,0-2.68-.02-2.95-.03-.36-.12-.53-.68-.6-.1-.01-.2-.09-.2-.15,0-.08.09-.15.21-.17.06-.01.25-.01.34-.01.77,0,1.63-.09,2.08-.09.99,0,1.7.15,2.13.59.48.47.59,1.01.59,1.38,0,.8-.35,1.27-.64,1.52-.27.22-.88.46-1.26.46-.11,0-.41-.02-.52-.06-.15-.07-.24-.12-.24-.23,0-.04.08-.11.16-.11h.1c.38,0,.95-.53.95-1.53,0-.77-.48-1.65-1.26-1.65Z"></path>
    </g>
  </g>
</svg><style>@media (prefers-color-scheme: light) { :root { filter: none; } }
@media (prefers-color-scheme: dark) { :root { filter: contrast(0.7407407407407407) brightness(2); } }
</style></svg>