<svg xmlns="http://www.w3.org/2000/svg" version="1.1" xmlns:xlink="http://www.w3.org/1999/xlink" xmlns:svgjs="http://svgjs.dev/svgjs" width="512" height="512"><svg id="SvgjsSvg1004" xmlns="http://www.w3.org/2000/svg" viewBox="0 0 512 512">
  <defs>
    <style>
      .cls-1 {
        fill: #f8ebe3;
      }

      .cls-2 {
        fill: #658480;
      }
    </style>
  </defs>
  <g id="SvgjsG1003" data-name="Layer_1">
    <rect class="cls-2" width="512" height="512"></rect>
    <g>
      <path class="cls-1" d="M114.91,175.23c8.77,0,20.19-.27,24.44-1.06.8-.27,2.13,1.86,2.39,3.19,0,10.63.53,20.46.53,25.77,0,3.72-1.86,7.17-4.25,7.17-2.13,0-3.72-3.72-4.25-6.64-3.45-14.08-9.57-17.01-17.54-18.33-6.38-1.06-24.18-1.59-37.73-1.33-.53,0-3.19,1.33-3.72,7.71-.53,6.38-1.33,53.94-.8,60.05,0,1.06.53,2.39,2.13,2.39h17.8c23.91,0,24.44-.8,29.23-13.02,1.59-3.99,3.45-5.85,5.05-5.85,2.13,0,2.66,3.99,2.39,6.38-.53,7.17-.8,12.49-.8,18.87,0,7.17.53,10.89.8,16.74,0,4.78-1.06,7.44-3.19,7.44-1.86,0-3.72-2.92-4.52-5.58-3.72-12.22-5.31-13.29-20.19-14.08-8.5-.53-19.13-.53-26.57-.53-1.06,0-2.39,1.86-2.39,2.39-1.06,6.11-.8,30.02-.8,40.92,0,7.44.8,17.54,2.13,21.79,1.33,3.19,3.45,5.58,5.31,6.11,4.52.8,13.55,1.86,23.65,1.86,4.25,0,19.13-.27,25.24-2.13,8.24-2.39,15.41-7.44,21.52-19.66,3.19-6.11,5.05-7.71,6.64-7.71,2.13,0,2.66,4.52,2.13,7.44,0,2.13-7.71,26.04-9.57,28.96-.8,1.06-3.72,2.92-5.05,2.92-2.92,0-48.36-1.86-86.89-1.86-14.61,0-19.93,1.33-29.76,1.33-5.05,0-8.24-.53-8.24-3.45,0-2.13,3.19-3.45,7.44-4.52,13.55-2.92,18.33-5.31,19.4-19.66.8-10.89,1.86-39.86,1.86-72.8s.53-38.79,0-46.5c-.8-11.16-3.45-14.88-14.88-17.27-5.58-1.33-7.97-2.39-7.97-4.52,0-2.39,3.99-3.72,7.71-3.72,12.49,0,25.24.8,41.98.8h39.32Z"></path>
      <path class="cls-1" d="M311,174.69c10.36-.53,14.88-2.13,18.6-4.52,1.86-1.06,2.92-1.86,3.99-1.86,1.33,0,2.66,2.39,1.33,6.11-2.66,8.24-4.25,17.54-5.85,30.82-.27,2.39-2.39,5.31-4.52,5.31-1.86,0-3.19-1.86-3.99-8.5-1.86-14.08-5.31-15.41-20.99-16.21-4.78-.27-32.42-.27-36.4.53-1.06.27-2.13,2.66-2.13,3.45,0,12.49-.27,40.12-.27,62.97,0,30.82.27,56.6,1.33,67.22,1.06,11.16,2.39,15.15,19.4,18.6,3.45.8,6.91,3.19,6.91,4.78,0,2.92-4.52,3.45-7.44,3.45-2.13,0-21.26-1.33-31.88-1.33-12.49,0-27.37,1.86-31.09,1.86-5.31,0-7.97-1.59-7.97-3.19,0-2.13,2.66-3.99,5.31-4.78,18.07-4.25,18.87-8.5,19.66-28.16.53-15.94,1.86-69.61,1.86-90.07v-31.62c0-1.86-1.59-3.45-2.39-3.45-5.05-.8-27.63-1.33-32.15-1.33-9.03,0-14.88,1.86-18.87,6.11-1.33,1.33-4.25,5.85-8.5,13.82-2.66,5.58-4.25,5.85-5.31,5.85-1.86,0-3.19-3.19-3.19-5.85,0-5.05,5.31-20.46,5.31-35.6,0-1.59,2.13-4.52,3.99-4.52,1.33,0,1.86,1.86,4.25,4.25.8.8,5.31,4.52,9.57,4.78,6.64.8,30.82,1.59,61.38,1.59,14.08,0,49.69-.27,60.05-.53Z"></path>
      <path class="cls-1" d="M410.64,177.09c2.39,7.17,6.91,19.4,11.69,32.42,14.08,39.32,33.74,91.14,38.26,102.56,8.77,21.52,13.29,23.65,24.71,26.84,4.25,1.06,6.64,2.39,6.64,4.25s-2.13,3.72-8.77,3.72c-8.24,0-22.85-1.33-33.74-1.33-8.77,0-13.55.53-20.46.53-6.38,0-8.24-1.86-8.24-3.45,0-1.33,1.59-3.45,6.64-4.25,12.22-2.39,11.43-7.71,10.63-13.02-1.86-10.1-8.5-27.1-14.61-44.11-.27-1.06-1.59-2.92-8.24-2.92-17.54,0-38.53.53-43.84,1.06-1.06,0-2.39,1.59-2.92,2.39-7.44,18.07-13.55,38.26-13.55,44.64,0,3.45,1.59,7.97,13.29,11.43,4.52,1.33,7.17,2.92,7.17,5.05,0,2.39-3.99,3.45-7.71,3.45-4.52,0-11.16-.8-20.99-.8s-23.38,1.33-27.37,1.33c-5.05,0-6.38-1.33-6.38-2.92s1.59-3.99,6.11-5.31c13.29-4.25,16.74-5.58,24.18-22.58,6.38-13.55,36.14-93,47.3-119.57,1.33-3.45,1.86-5.05,2.39-6.64.27-.8.8-2.39,1.86-4.25,1.86-2.92,5.58-8.5,7.44-11.43,1.86-2.39,3.19-3.45,4.52-3.45,1.06,0,2.13.8,3.99,6.38ZM417.55,263.97c-4.25-13.02-17.54-51.55-20.19-56.33-.8-1.59-1.59-1.59-2.39.27-4.78,12.75-18.33,49.16-20.46,57.13-.27,1.06.53,1.86,1.59,1.86,10.36-.27,31.88,0,40.92-.53.27,0,.8-1.33.53-2.39Z"></path>
    </g>
  </g>
</svg><style>@media (prefers-color-scheme: light) { :root { filter: none; } }
@media (prefers-color-scheme: dark) { :root { filter: none; } }
</style></svg>