<?xml version="1.0" encoding="UTF-8"?>
<svg xmlns="http://www.w3.org/2000/svg" version="1.1" viewBox="0 0 1040 1040">
  <defs>
    <style>
      .cls-1 {
        fill: none;
      }
    </style>
  </defs>
  <!-- Generator: Adobe Illustrator 28.6.0, SVG Export Plug-In . SVG Version: 1.2.0 Build 709)  -->
  <g>
    <g id="Layer_1">
      <rect class="cls-1" x="-1.3" width="1038.1" height="1038.1"/>
      <g>
        <path d="M264.7,312.1c22.1,0,48.7-3.2,57.7-5.2,2.6-.6,7.8,4.5,8.4,9.1.6,2.6.6,61.6.6,75.3s-5.2,19.5-11,19.5-11.7-9.7-13-17.5c-8.4-37.6-29.2-49.3-41.5-51.9-9.7-1.9-29.8-4.5-91.5-4.5s-7.1,2.6-7.8,19.5c-.6,16.2-2.6,92.8-2.6,141.4s3.2,7.1,7.8,7.1h57.1c39.6,0,37-3.2,50-31.1,4.5-9.7,9.1-18.8,16.2-18.8s7.8,11,7.1,20.8c-1.3,18.2-2.6,29.8-2.6,44.8s.6,29.2,2.6,47.4c1.3,11.7-3.2,20.8-9.1,20.8s-11-7.8-13-15.6c-8.4-27.9-19.5-34.4-38.3-36.3-21.4-1.9-45.4-1.9-66.8-1.9s-9.7,7.8-9.7,9.1c-1.9,21.4-1.3,66.8-.6,86.3.6,13.6-1.3,38.3,1.3,53.9.6,5.2,7.1,15.6,15.6,17.5,9.7,1.9,29.2,3.2,50.6,3.2s42.2.6,59.7-6.5c19.5-7.8,37.6-26,51.3-49.3,10.4-18.2,17.5-25.3,23.4-25.3s5.8,15.6,5.8,20.1-20.1,66.2-26,79.8c-2.6,5.8-15.6,9.1-18.8,9.1-7.1,0-202.4-2.6-223.8-2.6-48.7,0-53.2,3.2-75.9,3.2s-24-1.9-24-8.4,8.4-11.7,20.8-14.9c33.7-7.8,40.2-16.2,43.5-51.9,1.9-27.2,5.2-64.9,5.2-146.6s.6-116.1-.6-135.6c-1.3-22.1-5.8-37-34.4-41.5-13.6-2.6-22.1-5.2-22.1-13s12.3-9.7,21.4-9.7c31.1,0,99.3,1.9,130.4,1.9h99.3l-2.6-1.3Z"/>
        <path d="M559.3,312.1c94.1,0,103.2-2.6,109.6-3.2,5.2-.6,9.1,4.5,9.1,8.4-1.3,19.5,1.9,55.1,2.6,77.9.6,8.4-2.6,19.5-10.4,19.5s-10.4-6.5-15.6-22.7c-6.5-22.7-23.4-48.7-46.7-51.3-19.5-1.9-73.3-1.9-86.9-1.9s-9.7,5.8-9.7,7.1c-3.9,21.4-4.5,94.7-4.5,138.8s1.9,23.4,8.4,23.4c16.9,0,54.5.6,68.1-1.9,20.1-3.9,27.9-7.8,34.4-29.8,2.6-9.7,7.8-18.8,14.9-18.8s8.4,11.7,8.4,17.5c0,8.4-1.9,30.5-1.9,42.2,0,19.5,1.3,40.9,1.3,49.3,0,20.8-7.1,25.3-11.7,25.3s-8.4-4.5-12.3-18.8c-6.5-23.4-18.8-30.5-27.2-32.4-9.7-1.9-27.2-3.9-43.5-3.9s-24.7.6-32.4,1.9c-2.6.6-5.8,5.8-5.8,7.1,0,58.4,2.6,111.6,2.6,118.7,1.3,30.5,8.4,35.7,38.3,41.5,10.4,1.9,20.1,6.5,20.1,13.6s-11,10.4-23.4,10.4-43.5-1.9-68.1-1.9c-37.6,0-77.2,3.9-103.2,3.9s-20.1-4.5-20.1-8.4c0-7.1,7.1-11,20.1-14.9,26.6-7.1,33.7-16.9,35.7-35.7,1.9-20.8,5.2-55.8,5.2-185.6s0-99.3-1.3-116.8c-1.3-22.1-7.8-30.5-31.8-36.3-13.6-3.9-24-7.1-24-14.3s11.7-9.7,21.4-9.7c29.2,0,61.6,1.9,90.8,1.9h89.5Z"/>
        <path d="M864.9,329.6c-5.2,0-15.6,3.9-17.5,5.8s-4.5,8.4-5.2,24c-.6,13-.6,94.7-1.3,170.6,0,59.7.6,97.3.6,113.5.6,38.9,1.3,55.1,42.2,64.2,13,2.6,18.8,8.4,18.8,14.9s-10.4,9.7-20.1,9.7c-17.5,0-62.3-3.9-90.8-3.9s-55.1,1.9-75.3,1.9-27.9-2.6-27.9-11,10.4-10.4,17.5-12.3c29.8-7.1,38.3-16.2,40.9-48,1.9-24,3.9-61.6,3.9-95.4s0-173.9-1.3-191.4c-1.9-23.4-7.8-34.4-44.1-38.9-6.5-.6-13-5.8-13-9.7s5.8-9.7,13.6-11c3.9-.6,16.2-.6,22.1-.6,50,0,105.8-5.8,135-5.8,64.2,0,110.3,9.7,138.2,38.3,31.1,30.5,38.3,65.5,38.3,89.5,0,51.9-22.7,82.4-41.5,98.6-17.5,14.3-57.1,29.8-81.7,29.8s-26.6-1.3-33.7-3.9c-9.7-4.5-15.6-7.8-15.6-14.9s5.2-7.1,10.4-7.1h6.5c24.7,0,61.6-34.4,61.6-99.3s-31.1-107.1-81.7-107.1l1.3-.6Z"/>
      </g>
    </g>
  </g>
</svg>