<?xml version="1.0" encoding="UTF-8"?>
<svg id="Layer_2" xmlns="http://www.w3.org/2000/svg" viewBox="0 0 1040.68 1038.08">
  <defs>
    <style>
      .cls-1 {
        fill: none;
      }
    </style>
  </defs>
  <g id="Layer_1-2" data-name="Layer_1">
    <rect class="cls-1" width="1038.08" height="1038.08"/>
    <g>
      <path d="M266.01,312.07c22.06,0,48.66-3.24,57.74-5.19,2.6-.65,7.79,4.54,8.43,9.08.65,2.6.65,61.64.65,75.26,0,9.08-5.19,19.46-11.03,19.46s-11.68-9.73-12.98-17.52c-8.43-37.63-29.2-49.31-41.52-51.9-9.73-1.95-29.84-4.54-91.48-4.54-2.6,0-7.14,2.6-7.79,19.46-.65,16.22-2.6,92.78-2.6,141.44,0,1.95,3.24,7.14,7.79,7.14h57.09c39.58,0,36.98-3.24,49.96-31.14,4.54-9.73,9.08-18.82,16.22-18.82,5.84,0,7.79,11.03,7.14,20.76-1.3,18.17-2.6,29.84-2.6,44.77,0,17.52.65,29.2,2.6,47.36,1.3,11.68-3.24,20.76-9.08,20.76-5.19,0-11.03-7.79-12.98-15.57-8.43-27.9-19.46-34.39-38.28-36.33-21.41-1.95-45.42-1.95-66.83-1.95-2.6,0-9.73,7.79-9.73,9.08-1.95,21.41-1.3,66.83-.65,86.29.65,13.62-1.3,38.28,1.3,53.85.65,5.19,7.14,15.57,15.57,17.52,9.73,1.95,29.2,3.24,50.61,3.24,25.3,0,42.17.65,59.69-6.49,19.46-7.79,37.63-25.95,51.26-49.31,10.38-18.17,17.52-25.3,23.36-25.3,7.79,0,5.84,15.57,5.84,20.11,0,5.19-20.11,66.18-25.95,79.8-2.6,5.84-15.57,9.08-18.82,9.08-7.14,0-202.43-2.6-223.84-2.6-48.66,0-53.2,3.24-75.91,3.24-12.33,0-24.01-1.95-24.01-8.43s8.43-11.68,20.76-14.92c33.74-7.79,40.23-16.22,43.47-51.9,1.95-27.25,5.19-64.88,5.19-146.63s.65-116.14-.65-135.6c-1.3-22.06-5.84-36.98-34.39-41.52-13.62-2.6-22.06-5.19-22.06-12.98,0-5.84,12.33-9.73,21.41-9.73,31.14,0,99.27,1.95,130.41,1.95h99.27l-2.6-1.3Z"/>
      <path d="M560.57,312.07c94.08,0,103.16-2.6,109.65-3.24,5.19-.65,9.08,4.54,9.08,8.43-1.3,19.46,1.95,55.15,2.6,77.86.65,8.43-2.6,19.46-10.38,19.46-5.19,0-10.38-6.49-15.57-22.71-6.49-22.71-23.36-48.66-46.71-51.26-19.46-1.95-73.31-1.95-86.94-1.95-2.6,0-9.73,5.84-9.73,7.14-3.89,21.41-4.54,94.73-4.54,138.84,0,7.79,1.95,23.36,8.43,23.36,16.87,0,54.5.65,68.12-1.95,20.11-3.89,27.9-7.79,34.39-29.84,2.6-9.73,7.79-18.82,14.92-18.82,5.19,0,8.43,11.68,8.43,17.52,0,8.43-1.95,30.49-1.95,42.17,0,19.46,1.3,40.87,1.3,49.31,0,20.76-7.14,25.3-11.68,25.3-2.6,0-8.43-4.54-12.33-18.82-6.49-23.36-18.82-30.49-27.25-32.44-9.73-1.95-27.25-3.89-43.47-3.89-10.38,0-24.65.65-32.44,1.95-2.6.65-5.84,5.84-5.84,7.14,0,58.39,2.6,111.59,2.6,118.73,1.3,30.49,8.43,35.68,38.28,41.52,10.38,1.95,20.11,6.49,20.11,13.62,0,5.84-11.03,10.38-23.36,10.38-16.87,0-43.47-1.95-68.12-1.95-37.63,0-77.21,3.89-103.16,3.89-12.98,0-20.11-4.54-20.11-8.43,0-7.14,7.14-11.03,20.11-14.92,26.6-7.14,33.74-16.87,35.68-35.68,1.95-20.76,5.19-55.8,5.19-185.56,0-61.64,0-99.27-1.3-116.78-1.3-22.06-7.79-30.49-31.79-36.33-13.62-3.89-24.01-7.14-24.01-14.27,0-6.49,11.68-9.73,21.41-9.73,29.2,0,61.64,1.95,90.83,1.95h89.53Z"/>
      <path d="M866.15,329.59c-5.19,0-15.57,3.89-17.52,5.84s-4.54,8.43-5.19,24.01c-.65,12.98-.65,94.73-1.3,170.64,0,59.69.65,97.32.65,113.54.65,38.93,1.3,55.15,42.17,64.23,12.98,2.6,18.82,8.43,18.82,14.92,0,5.19-10.38,9.73-20.11,9.73-17.52,0-62.29-3.89-90.83-3.89-20.11,0-55.15,1.95-75.26,1.95-18.17,0-27.9-2.6-27.9-11.03,0-4.54,10.38-10.38,17.52-12.33,29.84-7.14,38.28-16.22,40.87-48.01,1.95-24.01,3.89-61.64,3.89-95.37,0-21.41,0-173.88-1.3-191.4-1.95-23.36-7.79-34.39-44.12-38.93-6.49-.65-12.98-5.84-12.98-9.73,0-5.19,5.84-9.73,13.62-11.03,3.89-.65,16.22-.65,22.06-.65,49.96,0,105.75-5.84,134.95-5.84,64.23,0,110.3,9.73,138.2,38.28,31.14,30.49,38.28,65.53,38.28,89.53,0,51.9-22.71,82.4-41.52,98.62-17.52,14.27-57.09,29.84-81.75,29.84-7.14,0-26.6-1.3-33.74-3.89-9.73-4.54-15.57-7.79-15.57-14.92,0-2.6,5.19-7.14,10.38-7.14h6.49c24.65,0,61.64-34.39,61.64-99.27,0-49.96-31.14-107.05-81.75-107.05l1.3-.65Z"/>
    </g>
  </g>
</svg>